<?xml version="1.0" encoding="UTF-8"?>
<svg id="Ebene_1" data-name="Ebene 1" xmlns="http://www.w3.org/2000/svg" viewBox="0 0 100 70">
  <defs>
    <style>
      .cls-1 {
        fill: #fff;
      }
    </style>
  </defs>
  <path class="cls-1" d="M90,0H10C4.5,0,0,4.5,0,10V60c0,5.5,4.5,10,10,10H90c5.5,0,10-4.5,10-10.1V10c0-5.5-4.5-10-10-10Zm2.7,59.9c.1,1.5-1.1,2.8-2.7,2.9H10c-1.5,0-2.7-1.3-2.7-2.8V10c-.1-1.5,1.1-2.8,2.6-2.9H90c1.5,0,2.7,1.3,2.7,2.8V59.9Z"/>
  <path class="cls-1" d="M30.6,57.9H13.8V12.1H30.6c11.9,0,18.4,7.4,18.4,22.7,0,13.2-4.5,23-18.4,23.1Zm7.3-22.2c0-9.2-1-16.4-10.9-16.4h-2.2v31.2h3.9c5.8,0,9.2-4.7,9.2-14.8Zm40.1-1.8c4.7-1.4,7.9-5.7,8-10.7,0-1-.2-11.2-13.1-11.2h-19.1V57.8h16.2c4.3,0,17.7,0,17.7-12.9,0-3.1-1.4-9.2-9.7-11Zm-13.3-14.7h3.5c4.9,0,6.9,1.7,6.9,5.5,0,3-2.2,5.5-6,5.5h-4.3v-11h-.1Zm4.5,31.3h-4.5v-11.8h4.8c5.7,0,7.1,3.3,7.1,5.9,0,5.9-5.6,5.9-7.4,5.9Z"/>
</svg>