<svg id="Ebene_1" data-name="Ebene 1" xmlns="http://www.w3.org/2000/svg" viewBox="0 0 311.8 56"><defs><style>.cls-1{fill:#fff;}</style></defs><title>sru_white</title><path class="cls-1" d="M100.3,24.3v.8a2.4828,2.4828,0,0,1-.1.9c-.1.3-.1.5-.2.8a1.769,1.769,0,0,1-.5.8,5.0084,5.0084,0,0,1-.7.8c-.2.2-.3.2-.5.4a4.7278,4.7278,0,0,1-1.2.7,6.4682,6.4682,0,0,1-1.3.4l-1.1.2H86V19.5h9.3c-.5,0,.8.1,1.2.3a2.994,2.994,0,0,1,.8.4c.3.2.5.3.8.5.3.3.4.3.6.5a6.07,6.07,0,0,1,.7,1,4.1792,4.1792,0,0,1,.4,1A2.7,2.7,0,0,1,100.3,24.3Z" transform="translate(-2.8 -4.6)"/><path class="cls-1" d="M93.3,4.7c-15,0-27.1,12.5-27.1,27.9S78.3,60.5,93.3,60.5,120.4,48,120.4,32.6,108.3,4.7,93.3,4.7Zm7.3,46.8-.6-1a3.2585,3.2585,0,0,1-.4-1.3,14.9789,14.9789,0,0,1-.2-2.2c-.1-1.5.1-2.3,0-3.8a10.0745,10.0745,0,0,0-.3-2.5,7.5793,7.5793,0,0,0-.6-1.6,4.4275,4.4275,0,0,0-1.2-1.5,7.4586,7.4586,0,0,0-1.5-.9,5.1862,5.1862,0,0,0-2.4-.5H86.2V51.6H78.7V13.7H98.2l2,.3,1.2.4,1.5.9,1.1.9,1,.9,1,1.3.7,1.2.6,1.3.4,1.1.3,1.3V25l-.3,1.9-.5,1.3-.7,1.2-1.1,1.1-1.7,1.4-2.4,1.5,1.4.6,1,.6,1,.8.9,1.2.6,1.3.4,1.6.2,1.7.2,2.2.2,5.5.2,1.4.7,1.2Z" transform="translate(-2.8 -4.6)"/><path class="cls-1" d="M224.1,35.3a16.5592,16.5592,0,0,0-1.6.5,1.2547,1.2547,0,0,0-.6,1.1,1.4327,1.4327,0,0,0,.5,1.1,1.656,1.656,0,0,0,1.2.5,2.9757,2.9757,0,0,0,1.5-.5,1.6907,1.6907,0,0,0,.7-1,5.3492,5.3492,0,0,0,.1-1.5v-.6A12.7487,12.7487,0,0,1,224.1,35.3Zm0,0a16.5592,16.5592,0,0,0-1.6.5,1.2547,1.2547,0,0,0-.6,1.1,1.4327,1.4327,0,0,0,.5,1.1,1.656,1.656,0,0,0,1.2.5,2.9757,2.9757,0,0,0,1.5-.5,1.6907,1.6907,0,0,0,.7-1,5.3492,5.3492,0,0,0,.1-1.5v-.6A12.7487,12.7487,0,0,1,224.1,35.3ZM195.3,4.7V60.4h55.5V4.7Zm15.2,22.6H206V40.4h-3V27.3h-4.5V24.6h12.1v2.7Zm7.1,4.6a2.6539,2.6539,0,0,0-1.4-.5,1.493,1.493,0,0,0-1,.3,2.6087,2.6087,0,0,0-.7,1.3,16.9039,16.9039,0,0,0-.2,3.8v3.5h-2.9V28.9h2.7v1.6a4.0431,4.0431,0,0,1,1.3-1.5,2.8361,2.8361,0,0,1,1.3-.4,3.2924,3.2924,0,0,1,1.9.6Zm8.9,8.4a4.6491,4.6491,0,0,1-.3-.9c0-.2-.1-.3-.1-.4a4.188,4.188,0,0,1-1.6,1.1,3.9222,3.9222,0,0,1-1.8.4,3.62,3.62,0,0,1-2.7-1,3.492,3.492,0,0,1-1-2.4,3.3711,3.3711,0,0,1,.5-1.7,3.0392,3.0392,0,0,1,1.3-1.2,7.8764,7.8764,0,0,1,2.3-.7,21.6772,21.6772,0,0,0,2.8-.7v-.3a1.6969,1.6969,0,0,0-.4-1.3,2.2044,2.2044,0,0,0-1.6-.4,2.1326,2.1326,0,0,0-1.2.3,2.3257,2.3257,0,0,0-.7,1.1l-2.7-.5a4.818,4.818,0,0,1,1.5-2.5,5.71,5.71,0,0,1,3.3-.8,6.86,6.86,0,0,1,2.9.5,2.5623,2.5623,0,0,1,1.3,1.2,7.6,7.6,0,0,1,.4,2.7v3.5a12.8361,12.8361,0,0,0,.1,2.2,8.8,8.8,0,0,0,.5,1.5h-2.8Zm21.2,0h-2.9V33.8a5.0725,5.0725,0,0,0-.3-2.2,1.5606,1.5606,0,0,0-1.3-.7,1.9217,1.9217,0,0,0-1.2.4,2.2584,2.2584,0,0,0-.8,1.1,7.1936,7.1936,0,0,0-.2,2.3v5.5h-2.9V33.9a5.0428,5.0428,0,0,0-.2-2.1,1.2755,1.2755,0,0,0-.5-.7c-.2-.2-.5-.2-.9-.2a1.594,1.594,0,0,0-1.2.4,3.134,3.134,0,0,0-.8,1.1,12.1435,12.1435,0,0,0-.2,2.3v5.5h-2.9V28.9h2.7v1.5a4.36,4.36,0,0,1,3.5-1.8,3.4533,3.4533,0,0,1,1.8.5,3.5315,3.5315,0,0,1,1.3,1.4,5.2117,5.2117,0,0,1,1.6-1.4,4.0747,4.0747,0,0,1,1.8-.5,4.6484,4.6484,0,0,1,2.1.5,2.7751,2.7751,0,0,1,1.3,1.5,6.9769,6.9769,0,0,1,.3,2.4v7.3Zm-25.2-4.4a1.2547,1.2547,0,0,0-.6,1.1,1.4327,1.4327,0,0,0,.5,1.1,1.656,1.656,0,0,0,1.2.5,2.9757,2.9757,0,0,0,1.5-.5,1.6907,1.6907,0,0,0,.7-1,5.3492,5.3492,0,0,0,.1-1.5V35c-.4.1-1,.3-1.8.5A2.8261,2.8261,0,0,0,222.5,35.9Zm1.6-.6a16.5592,16.5592,0,0,0-1.6.5,1.2547,1.2547,0,0,0-.6,1.1,1.4327,1.4327,0,0,0,.5,1.1,1.656,1.656,0,0,0,1.2.5,2.9757,2.9757,0,0,0,1.5-.5,1.6907,1.6907,0,0,0,.7-1,5.3492,5.3492,0,0,0,.1-1.5v-.6A12.7487,12.7487,0,0,1,224.1,35.3Zm0,0a16.5592,16.5592,0,0,0-1.6.5,1.2547,1.2547,0,0,0-.6,1.1,1.4327,1.4327,0,0,0,.5,1.1,1.656,1.656,0,0,0,1.2.5,2.9757,2.9757,0,0,0,1.5-.5,1.6907,1.6907,0,0,0,.7-1,5.3492,5.3492,0,0,0,.1-1.5v-.6A12.7487,12.7487,0,0,1,224.1,35.3Z" transform="translate(-2.8 -4.6)"/><path class="cls-1" d="M29.7,4.9C14.9,4.9,2.8,17.3,2.8,32.6s12,27.7,26.9,27.7S56.6,47.9,56.6,32.6,44.6,4.9,29.7,4.9ZM45.8,42.1a8.4689,8.4689,0,0,1-.4,1.7,13.3553,13.3553,0,0,1-.7,1.8,7.434,7.434,0,0,1-1.3,2.1,10.2177,10.2177,0,0,1-1.8,1.8A15.2582,15.2582,0,0,1,40,50.6a21.1572,21.1572,0,0,1-2,1.2,18.8872,18.8872,0,0,1-2.5,1.1c-1.1.4-1.7.6-2.8.9a14.5341,14.5341,0,0,1-3,.3,26.2021,26.2021,0,0,1-2.8-.1,8.7344,8.7344,0,0,1-2.2-.5c-1-.3-1.6-.5-2.6-.8a17.2517,17.2517,0,0,1-2.4-1,11.4,11.4,0,0,1-1.9-1c-.7-.4-1-.6-1.7-1-.8-.5-1.3-.8-2.1-1.3h-.1V39.9h0c1.4,1.4,1.5,1.8,2.6,2.8.6.6,1,.9,1.7,1.5.6.5,1,.7,1.6,1.2a22.47,22.47,0,0,0,2.1,1.2,21.7583,21.7583,0,0,0,2.7,1.1,7.9447,7.9447,0,0,0,2.2.6,14.6449,14.6449,0,0,0,3,.2,9.2555,9.2555,0,0,0,2.3-.4,9.0367,9.0367,0,0,0,2.1-.8A4.8976,4.8976,0,0,0,36,45.6a3.9356,3.9356,0,0,0,.6-2.1,6.602,6.602,0,0,0-.1-1.4,5.0715,5.0715,0,0,0-.9-1.6,3.7753,3.7753,0,0,0-1.2-1,7.956,7.956,0,0,0-2.5-1.1,18.2875,18.2875,0,0,0-2.5-.6c-1.1-.2-1.8-.2-2.9-.4s-1.8-.3-2.9-.6a12.75,12.75,0,0,1-2.7-1.1,13.4969,13.4969,0,0,1-2.6-1.5,19.1978,19.1978,0,0,1-1.5-1.4,8.5179,8.5179,0,0,1-1.7-2.5,13.2721,13.2721,0,0,1-.9-2.1,7.3355,7.3355,0,0,1-.5-2,3.42,3.42,0,0,1-.1-1.1,13.1291,13.1291,0,0,1,.1-2.8,14.132,14.132,0,0,1,.6-2.2,6.44,6.44,0,0,1,1.1-2c.5-.8.8-1.2,1.3-1.9a9.266,9.266,0,0,1,1.4-1.4A13.9334,13.9334,0,0,1,20,13.3a16.3158,16.3158,0,0,1,1.9-.9,21.3632,21.3632,0,0,1,2.7-.9,15.525,15.525,0,0,1,2.1-.4,10.8687,10.8687,0,0,1,1.8-.1,14.7687,14.7687,0,0,1,2.1.1,10.7936,10.7936,0,0,1,1.9.3,16.8368,16.8368,0,0,1,2.4.6c.8.3,1.2.5,2,.8a18.9447,18.9447,0,0,1,2.1.9,13.2409,13.2409,0,0,1,2,1.2l1.7,1.2v6.8l-2.4-2a7.6069,7.6069,0,0,0-1.9-1.2c-.7-.4-1-.6-1.7-1a15.4523,15.4523,0,0,0-2.2-1.2,14.2725,14.2725,0,0,0-2.2-.8,18.0306,18.0306,0,0,0-1.9-.5,11.0759,11.0759,0,0,0-1.9-.2H27.3a9.8524,9.8524,0,0,0-1.7.2,2.9468,2.9468,0,0,0-1.3.5,1.9967,1.9967,0,0,0-1,.8,5.3829,5.3829,0,0,0-.9,1.2,4.939,4.939,0,0,0-.5,1.6,3.7875,3.7875,0,0,0,0,1.5,3.9457,3.9457,0,0,0,.6,1.5,4.1456,4.1456,0,0,0,1.1,1.2,11.2743,11.2743,0,0,0,1.8,1.2,8.6514,8.6514,0,0,0,2.6.8c1,.3,1.6.4,2.6.7,1.5.4,2.3.6,3.8,1,1.2.3,1.8.5,3,.9a10.8373,10.8373,0,0,1,1.9.8,12.2272,12.2272,0,0,1,1.9,1.2,8.6355,8.6355,0,0,1,1.4,1.3,7.5513,7.5513,0,0,1,1.1,1.4,9.1474,9.1474,0,0,1,.9,1.7,14.58,14.58,0,0,1,.7,1.9,15.17,15.17,0,0,1,.3,2.1A5.7578,5.7578,0,0,1,45.8,42.1Z" transform="translate(-2.8 -4.6)"/><path class="cls-1" d="M274,30.9h-2V27.4h4.3a1.6261,1.6261,0,0,1,1.1.5,2,2,0,0,1,0,2.4,2.281,2.281,0,0,1-1.2.6A14.282,14.282,0,0,0,274,30.9Z" transform="translate(-2.8 -4.6)"/><path class="cls-1" d="M278.1,34.3a2.1326,2.1326,0,0,1,.3,1.2,1.844,1.844,0,0,1-.4,1.3,1.9753,1.9753,0,0,1-1.1.6,9.8537,9.8537,0,0,1-2.1.1H272V33.4h2.4a13.0541,13.0541,0,0,1,2.7.2A1.9783,1.9783,0,0,1,278.1,34.3Z" transform="translate(-2.8 -4.6)"/><path class="cls-1" d="M287.5,4.6c-15,0-27.1,12.5-27.1,28s12.2,28,27.1,28c15,0,27.1-12.5,27.1-28S302.5,4.6,287.5,4.6Zm-6.4,33.1a3.4353,3.4353,0,0,1-1.3,1.6,3.9709,3.9709,0,0,1-2,.7,28.5364,28.5364,0,0,1-3.6.1H269V24.8h6a17.1033,17.1033,0,0,1,2.6.1,4.4182,4.4182,0,0,1,1.6.6,3.8036,3.8036,0,0,1,1.2,1.3,3.4533,3.4533,0,0,1,.5,1.8,3.6057,3.6057,0,0,1-.6,2,3.7377,3.7377,0,0,1-1.5,1.3,3.928,3.928,0,0,1,2.1,1.4,3.6906,3.6906,0,0,1,.7,2.3A4.6484,4.6484,0,0,1,281.1,37.7Zm12.8,2.5h-2.6V38.5a3.6382,3.6382,0,0,1-1.6,1.4,3.5132,3.5132,0,0,1-2,.5,4.5519,4.5519,0,0,1-2-.5,2.9491,2.9491,0,0,1-1.3-1.4A5.6676,5.6676,0,0,1,284,36V29h2.9v5.1a9.1179,9.1179,0,0,0,.2,2.9,1.242,1.242,0,0,0,.6.8,1.7963,1.7963,0,0,0,1.1.3,2.01,2.01,0,0,0,1.3-.4,1.8908,1.8908,0,0,0,.8-1,15.338,15.338,0,0,0,.2-3V29H294V40.2Zm10.8-.9a5.63,5.63,0,0,1-3.7,1.1,6.0505,6.0505,0,0,1-3.5-.9,4.0639,4.0639,0,0,1-1.7-2.5l2.9-.4a2.3265,2.3265,0,0,0,.7,1.3,2.5372,2.5372,0,0,0,1.6.4,2.8612,2.8612,0,0,0,1.7-.4.91.91,0,0,0,.4-.8,1.4213,1.4213,0,0,0-.2-.6,3.3624,3.3624,0,0,0-1-.4,15.79,15.79,0,0,1-4.4-1.4,2.7645,2.7645,0,0,1-1.3-2.5,3.0428,3.0428,0,0,1,1.1-2.4,5.0489,5.0489,0,0,1,3.5-1,5.71,5.71,0,0,1,3.3.8,3.9653,3.9653,0,0,1,1.5,2.2l-2.7.5a1.4454,1.4454,0,0,0-.7-1,2.6485,2.6485,0,0,0-1.4-.3,2.9843,2.9843,0,0,0-1.6.3.8643.8643,0,0,0-.3.6.55.55,0,0,0,.3.5,9.78,9.78,0,0,0,2.7.8,9.0286,9.0286,0,0,1,3.2,1.3,2.7923,2.7923,0,0,1,.9,2.2A3.1721,3.1721,0,0,1,304.7,39.3Z" transform="translate(-2.8 -4.6)"/><path class="cls-1" d="M130,4.7V60.4h55.7V4.7Zm46.5,33.2a14.9189,14.9189,0,0,1-.2,2.1,22.6762,22.6762,0,0,1-.6,2.5,15.3576,15.3576,0,0,1-1.1,3,14.7625,14.7625,0,0,1-1.6,2.7,16.3729,16.3729,0,0,1-2.8,3.1,16.0323,16.0323,0,0,1-3.7,2.5,15.8465,15.8465,0,0,1-3.8,1.5,18.8148,18.8148,0,0,1-3.3.5c-1.2.1-1.9.1-3.1.1a17.7316,17.7316,0,0,1-3.2-.5,17.2605,17.2605,0,0,1-3.2-1.1,14.2766,14.2766,0,0,1-2.7-1.5,15.5833,15.5833,0,0,1-2-1.6,13.8947,13.8947,0,0,1-2.1-2.1,20.0238,20.0238,0,0,1-1.6-2.4,10.013,10.013,0,0,1-1-2.1,9.6781,9.6781,0,0,1-.8-2.4,20.0235,20.0235,0,0,1-.4-2.4c-.1-1-.2-1.6-.3-2.6V9.3h8.8V37.9a5.702,5.702,0,0,0,.1,1.3,6.4682,6.4682,0,0,0,.4,1.3c.2.6.4.9.6,1.4a7.4586,7.4586,0,0,0,.7,1.2,5.3026,5.3026,0,0,0,1,1.2,12.667,12.667,0,0,0,1.3,1.1,11.9054,11.9054,0,0,0,1.5.9c.5.2.8.3,1.3.5a6.4562,6.4562,0,0,0,1.9.4,3.295,3.295,0,0,0,1.4,0,3.4019,3.4019,0,0,0,1-.1,10.4616,10.4616,0,0,0,1.7-.4,5.5764,5.5764,0,0,0,1.6-.7,7.837,7.837,0,0,0,1.5-1,17.8783,17.8783,0,0,0,1.4-1.3,9.3816,9.3816,0,0,0,.9-1.2c.3-.5.4-.8.7-1.3a7.8378,7.8378,0,0,0,.5-1.4,5.5371,5.5371,0,0,0,.2-1.8V9.2h8.6V34.9A8.0272,8.0272,0,0,1,176.5,37.9Z" transform="translate(-2.8 -4.6)"/></svg>